$ DEMON TORRENTS $    #######   SERIOUS       UPLOADING!!!!!       ########





....ALL THE FILES UPLOADED ARE NOT CREATED BY THE UPLOADER....







****check out my other releases****
             
http://thepiratebay.org/user/tdkdemon/





release info:


UPLOADER : DEMON~THE DARK MASTER(TDM) {THE ULTIMATE INDIAN PORN UPLOADER}


Video
ID : 0
Format : xvid
Codec ID : xvid
Duration : 1h 6mn
Bit rate : 689 Kbps
Width : 352 pixels
Height : 288 pixels
Display aspect ratio : 1.222
Frame rate : 25.000 fps
Standard : PAL
Bits/(Pixel*Frame) : 0.272
Stream size : 325 MiB (90%)

Audio
ID : 1
Format : MPEG Audio
Format version : Version 1
Format profile : Layer 3
Mode : Joint stereo
Mode extension : MS Stereo
Codec ID : 55
Codec ID/Hint : MP3
Duration : 1h 6mn
Bit rate mode : Constant
Bit rate : 64.0 Kbps
Channel(s) : 2 channels
Sampling rate : 48.0 KHz
Compression mode : Lossy
Stream size : 30.2 MiB (8%)
Alignment : Aligned on interleaves
Interleave, duration : 24 ms (0.60 video frame)






<<<<<<<    mastitorrents  >>>>>>





@@@@@  SEED    SEED     SEED        AFTER     \\\"YOU\\\"     DOWNLOAD     !!!!!!!@@@@@






SCREEN SHOTS :
 
http://www.savesnap.com/images/vlcsnagrg.png
 
http://www.savesnap.com/images/vlcsnaxlx.png
 
http://www.savesnap.com/images/vlcsnawfw.png 